<?xml version="1.0" encoding="UTF-8" standalone="no"?>
<svg
   xmlns:dc="http://purl.org/dc/elements/1.1/"
   xmlns:cc="http://creativecommons.org/ns#"
   xmlns:rdf="http://www.w3.org/1999/02/22-rdf-syntax-ns#"
   xmlns:svg="http://www.w3.org/2000/svg"
   xmlns="http://www.w3.org/2000/svg"
   width="86"
   height="86"
   viewBox="0 0 86 86"
   fill="none"
   version="1.1"
   id="svg22">
  <metadata
     id="metadata26">
    <rdf:RDF>
      <cc:Work
         rdf:about="">
        <dc:format>image/svg+xml</dc:format>
        <dc:type
           rdf:resource="http://purl.org/dc/dcmitype/StillImage" />
        <dc:title></dc:title>
      </cc:Work>
    </rdf:RDF>
  </metadata>
  <g
     clip-path="url(#clip0)"
     id="g6"
     transform="matrix(1.3402353,0,0,1.3436242,0.01511804,0.00153774)">
    <path
       d="m 1.07,0 h 31.01 c 17.71,0 32.07,14.32 32.07,32 v 30.94 c 0,0.59 -0.48,1.07 -1.07,1.07 H 32.07 C 14.36,64 0,49.67 0,32 V 1.07 C 0,0.48 0.48,0 1.07,0 Z"
       id="path2"
       style="fill:url(#paint0_radial)" />
    <path
       d="m 44.31,42.7495 c -0.45,0 -0.81,-0.11 -1.18,-0.9 l -10.58,-22.17 -7.99,16.15 c 2.75,-2.75 7.2,-4.44 10.75,-4.44 0.56,0 0.96,0.26 0.96,0.73 0,0.48 -0.34,0.79 -0.84,0.79 -5.21,0.34 -10.46,2.96 -14.07,9.28 -0.34,0.51 -0.73,0.56 -1.01,0.56 -0.51,0 -0.96,-0.51 -0.56,-1.29 l 11.87,-24.02 c 0.45,-0.9 1.41,-0.9 1.8,-0.06 l 11.59,24.08 c 0.4,0.85 -0.24,1.29 -0.74,1.29 z"
       id="path4"
       style="fill:#ffffff" />
  </g>
  <defs
     id="defs20">
    <radialGradient
       id="paint0_radial"
       cx="0"
       cy="0"
       r="1"
       gradientUnits="userSpaceOnUse"
       gradientTransform="matrix(-32.0374,0,0,-32.0374,32.0747,32)">
      <stop
         offset="0.2242"
         stop-color="#36375F"
         id="stop8" />
      <stop
         offset="0.418"
         stop-color="#2A2B4A"
         id="stop10" />
      <stop
         offset="0.8153"
         stop-color="#0C0C15"
         id="stop12" />
      <stop
         offset="0.9632"
         id="stop14" />
    </radialGradient>
    <clipPath
       id="clip0">
      <rect
         width="64.15"
         height="64"
         fill="white"
         id="rect17" />
    </clipPath>
  </defs>
</svg>
